ISO-10303-21;
HEADER;
FILE_DESCRIPTION (( 'STEP AP214' ),
    '1' );
FILE_NAME ('OLED standoff M3.STEP',
    '2026-07-27T18:27:37',
    ( '' ),
    ( '' ),
    'SwSTEP 2.0',
    'SolidWorks 2025',
    '' );
FILE_SCHEMA (( 'AUTOMOTIVE_DESIGN' ));
ENDSEC;

DATA;
#1 = DIRECTION ( 'NONE',  ( 0.000000000000000000, 0.000000000000000000, 1.000000000000000000 ) ) ;
#2 = CIRCLE ( 'NONE', #8, 2.500000000000000000 ) ;
#3 = CARTESIAN_POINT ( 'NONE',  ( 0.000000000000000000, 5.000000000000000000, 0.000000000000000000 ) ) ;
#4 = FACE_OUTER_BOUND ( 'NONE', #28, .T. ) ;
#5 = EDGE_CURVE ( 'NONE', #36, #74, #161, .T. ) ;
#6 = DIRECTION ( 'NONE',  ( 0.000000000000000000, 0.000000000000000000, -1.000000000000000000 ) ) ;
#7 = ORIENTED_EDGE ( 'NONE', *, *, #77, .F. ) ;
#8 = AXIS2_PLACEMENT_3D ( 'NONE', #19, #126, #17 ) ;
#9 = PRODUCT_RELATED_PRODUCT_CATEGORY ( 'part', '', ( #83 ) ) ;
#10 = FILL_AREA_STYLE ('',( #123 ) ) ;
#11 = ORIENTED_EDGE ( 'NONE', *, *, #125, .F. ) ;
#12 = AXIS2_PLACEMENT_3D ( 'NONE', #198, #166, #76 ) ;
#13 = DIRECTION ( 'NONE',  ( 0.000000000000000000, 1.000000000000000000, 0.000000000000000000 ) ) ;
#14 = ORIENTED_EDGE ( 'NONE', *, *, #5, .F. ) ;
#15 = CARTESIAN_POINT ( 'NONE',  ( 0.000000000000000000, 5.000000000000000000, 0.000000000000000000 ) ) ;
#16 = CYLINDRICAL_SURFACE ( 'NONE', #164, 1.524999999999999911 ) ;
#17 = DIRECTION ( 'NONE',  ( 0.000000000000000000, 0.000000000000000000, 1.000000000000000000 ) ) ;
#18 = VERTEX_POINT ( 'NONE', #44 ) ;
#19 = CARTESIAN_POINT ( 'NONE',  ( 0.000000000000000000, 0.000000000000000000, 0.000000000000000000 ) ) ;
#20 = DIRECTION ( 'NONE',  ( 0.000000000000000000, 1.000000000000000000, 0.000000000000000000 ) ) ;
#21 = EDGE_CURVE ( 'NONE', #67, #36, #29, .T. ) ;
#22 = CARTESIAN_POINT ( 'NONE',  ( 1.867586368699713573E-16, 5.000000000000000000, 1.524999999999999911 ) ) ;
#23 = CIRCLE ( 'NONE', #176, 1.524999999999999911 ) ;
#24 = SHAPE_DEFINITION_REPRESENTATION ( #52, #57 ) ;
#25 = STYLED_ITEM ( 'NONE', ( #101 ), #85 ) ;
#26 = CARTESIAN_POINT ( 'NONE',  ( 1.867586368699713573E-16, 0.000000000000000000, 1.524999999999999911 ) ) ;
#27 = EDGE_CURVE ( 'NONE', #177, #18, #157, .T. ) ;
#28 = EDGE_LOOP ( 'NONE', ( #191, #197, #14, #170 ) ) ;
#29 = LINE ( 'NONE', #152, #111 ) ;
#30 = CARTESIAN_POINT ( 'NONE',  ( 0.000000000000000000, 5.000000000000000000, 0.000000000000000000 ) ) ;
#31 = CARTESIAN_POINT ( 'NONE',  ( 3.061616997868383141E-16, 5.000000000000000000, 2.500000000000000000 ) ) ;
#32 = CARTESIAN_POINT ( 'NONE',  ( 0.000000000000000000, 5.000000000000000000, 0.000000000000000000 ) ) ;
#33 = VECTOR ( 'NONE', #53, 1000.000000000000000 ) ;
#34 = DIRECTION ( 'NONE',  ( -0.000000000000000000, -1.000000000000000000, -0.000000000000000000 ) ) ;
#35 = CLOSED_SHELL ( 'NONE', ( #188, #50, #120, #40, #112, #148 ) ) ;
#36 = VERTEX_POINT ( 'NONE', #75 ) ;
#37 = CIRCLE ( 'NONE', #122, 2.500000000000000000 ) ;
#38 = CARTESIAN_POINT ( 'NONE',  ( 0.000000000000000000, 0.000000000000000000, 0.000000000000000000 ) ) ;
#39 = CYLINDRICAL_SURFACE ( 'NONE', #100, 2.500000000000000000 ) ;
#40 = ADVANCED_FACE ( 'NONE', ( #136, #119 ), #79, .F. ) ;
#41 = CARTESIAN_POINT ( 'NONE',  ( 0.000000000000000000, 5.000000000000000000, -1.524999999999999911 ) ) ;
#42 = AXIS2_PLACEMENT_3D ( 'NONE', #45, #13, #139 ) ;
#43 = DIRECTION ( 'NONE',  ( 0.000000000000000000, 0.000000000000000000, 1.000000000000000000 ) ) ;
#44 = CARTESIAN_POINT ( 'NONE',  ( 3.061616997868383141E-16, 5.000000000000000000, 2.500000000000000000 ) ) ;
#45 = CARTESIAN_POINT ( 'NONE',  ( 0.000000000000000000, 0.000000000000000000, 0.000000000000000000 ) ) ;
#46 = UNCERTAINTY_MEASURE_WITH_UNIT (LENGTH_MEASURE( 1.000000000000000082E-05 ), #91, 'distance_accuracy_value', 'NONE');
#47 = DIRECTION ( 'NONE',  ( 0.000000000000000000, 0.000000000000000000, 1.000000000000000000 ) ) ;
#48 = DIRECTION ( 'NONE',  ( 0.000000000000000000, 0.000000000000000000, 1.000000000000000000 ) ) ;
#49 = ORIENTED_EDGE ( 'NONE', *, *, #125, .T. ) ;
#50 = ADVANCED_FACE ( 'NONE', ( #104 ), #92, .T. ) ;
#51 = CARTESIAN_POINT ( 'NONE',  ( 0.000000000000000000, 5.000000000000000000, 0.000000000000000000 ) ) ;
#52 = PRODUCT_DEFINITION_SHAPE ( 'NONE', 'NONE',  #196 ) ;
#53 = DIRECTION ( 'NONE',  ( -0.000000000000000000, -1.000000000000000000, -0.000000000000000000 ) ) ;
#54 = VECTOR ( 'NONE', #187, 1000.000000000000000 ) ;
#55 = ORIENTED_EDGE ( 'NONE', *, *, #149, .F. ) ;
#56 = PRESENTATION_LAYER_ASSIGNMENT (  '', '', ( #25 ) ) ;
#57 = ADVANCED_BREP_SHAPE_REPRESENTATION ( 'OLED standoff M3', ( #85, #81 ), #138 ) ;
#58 = EDGE_LOOP ( 'NONE', ( #162, #82 ) ) ;
#59 = ORIENTED_EDGE ( 'NONE', *, *, #156, .F. ) ;
#60 = AXIS2_PLACEMENT_3D ( 'NONE', #142, #94, #48 ) ;
#61 = SURFACE_STYLE_USAGE ( .BOTH. , #118 ) ;
#62 = DIRECTION ( 'NONE',  ( 1.000000000000000000, 0.000000000000000000, 0.000000000000000000 ) ) ;
#63 = DIRECTION ( 'NONE',  ( -0.000000000000000000, -1.000000000000000000, -0.000000000000000000 ) ) ;
#64 = ORIENTED_EDGE ( 'NONE', *, *, #156, .T. ) ;
#65 = CIRCLE ( 'NONE', #12, 2.500000000000000000 ) ;
#66 = DIRECTION ( 'NONE',  ( 0.000000000000000000, 1.000000000000000000, 0.000000000000000000 ) ) ;
#67 = VERTEX_POINT ( 'NONE', #41 ) ;
#68 = CARTESIAN_POINT ( 'NONE',  ( 0.000000000000000000, 5.000000000000000000, 0.000000000000000000 ) ) ;
#69 = CARTESIAN_POINT ( 'NONE',  ( 0.000000000000000000, 5.000000000000000000, -2.500000000000000000 ) ) ;
#70 = CARTESIAN_POINT ( 'NONE',  ( 1.867586368699713573E-16, 5.000000000000000000, 1.524999999999999911 ) ) ;
#71 = AXIS2_PLACEMENT_3D ( 'NONE', #30, #183, #141 ) ;
#72 = ORIENTED_EDGE ( 'NONE', *, *, #140, .F. ) ;
#73 = AXIS2_PLACEMENT_3D ( 'NONE', #137, #63, #134 ) ;
#74 = VERTEX_POINT ( 'NONE', #26 ) ;
#75 = CARTESIAN_POINT ( 'NONE',  ( 0.000000000000000000, 0.000000000000000000, -1.524999999999999911 ) ) ;
#76 = DIRECTION ( 'NONE',  ( 0.000000000000000000, 0.000000000000000000, 1.000000000000000000 ) ) ;
#77 = EDGE_CURVE ( 'NONE', #18, #177, #65, .T. ) ;
#78 = MECHANICAL_DESIGN_GEOMETRIC_PRESENTATION_REPRESENTATION (  '', ( #25 ), #179 ) ;
#79 = PLANE ( 'NONE',  #184 ) ;
#80 = DIRECTION ( 'NONE',  ( 0.000000000000000000, 0.000000000000000000, -1.000000000000000000 ) ) ;
#81 = AXIS2_PLACEMENT_3D ( 'NONE', #38, #151, #62 ) ;
#82 = ORIENTED_EDGE ( 'NONE', *, *, #144, .T. ) ;
#83 = PRODUCT ( 'OLED standoff M3', 'OLED standoff M3', '', ( #135 ) ) ;
#84 = CARTESIAN_POINT ( 'NONE',  ( 0.000000000000000000, 5.000000000000000000, -2.500000000000000000 ) ) ;
#85 = MANIFOLD_SOLID_BREP ( 'Boss-Extrude1', #35 ) ;
#86 = DIRECTION ( 'NONE',  ( -0.000000000000000000, -1.000000000000000000, -0.000000000000000000 ) ) ;
#87 = APPLICATION_PROTOCOL_DEFINITION ( 'draft international standard', 'automotive_design', 1998, #158 ) ;
#88 = ORIENTED_EDGE ( 'NONE', *, *, #149, .T. ) ;
#89 =( NAMED_UNIT ( * ) SI_UNIT ( $, .STERADIAN. ) SOLID_ANGLE_UNIT ( ) );
#90 = DIRECTION ( 'NONE',  ( 0.000000000000000000, 1.000000000000000000, 0.000000000000000000 ) ) ;
#91 =( LENGTH_UNIT ( ) NAMED_UNIT ( * ) SI_UNIT ( .MILLI., .METRE. ) );
#92 = CYLINDRICAL_SURFACE ( 'NONE', #73, 2.500000000000000000 ) ;
#93 = APPLICATION_CONTEXT ( 'automotive_design' ) ;
#94 = DIRECTION ( 'NONE',  ( 0.000000000000000000, 1.000000000000000000, 0.000000000000000000 ) ) ;
#95 = DIRECTION ( 'NONE',  ( 0.000000000000000000, 0.000000000000000000, 1.000000000000000000 ) ) ;
#96 = FACE_OUTER_BOUND ( 'NONE', #133, .T. ) ;
#97 = CIRCLE ( 'NONE', #60, 1.524999999999999911 ) ;
#98 = DIRECTION ( 'NONE',  ( 0.000000000000000000, 1.000000000000000000, 0.000000000000000000 ) ) ;
#99 = ORIENTED_EDGE ( 'NONE', *, *, #180, .T. ) ;
#100 = AXIS2_PLACEMENT_3D ( 'NONE', #154, #171, #146 ) ;
#101 = PRESENTATION_STYLE_ASSIGNMENT (( #61 ) ) ;
#102 = EDGE_LOOP ( 'NONE', ( #7, #49, #127, #116 ) ) ;
#103 = AXIS2_PLACEMENT_3D ( 'NONE', #15, #90, #43 ) ;
#104 = FACE_OUTER_BOUND ( 'NONE', #102, .T. ) ;
#105 = VERTEX_POINT ( 'NONE', #22 ) ;
#106 = COLOUR_RGB ( '',0.7921568627450980005, 0.8196078431372548767, 0.9333333333333333481 ) ;
#107 = FACE_OUTER_BOUND ( 'NONE', #194, .T. ) ;
#108 = FACE_OUTER_BOUND ( 'NONE', #109, .T. ) ;
#109 = EDGE_LOOP ( 'NONE', ( #11, #153, #99, #64 ) ) ;
#110 =( NAMED_UNIT ( * ) SI_UNIT ( $, .STERADIAN. ) SOLID_ANGLE_UNIT ( ) );
#111 = VECTOR ( 'NONE', #163, 1000.000000000000000 ) ;
#112 = ADVANCED_FACE ( 'NONE', ( #108 ), #39, .T. ) ;
#113 = PLANE ( 'NONE',  #71 ) ;
#114 = APPLICATION_PROTOCOL_DEFINITION ( 'draft international standard', 'automotive_design', 1998, #93 ) ;
#115 = EDGE_LOOP ( 'NONE', ( #59, #131 ) ) ;
#116 = ORIENTED_EDGE ( 'NONE', *, *, #180, .F. ) ;
#117 = EDGE_LOOP ( 'NONE', ( #72, #55 ) ) ;
#118 = SURFACE_SIDE_STYLE ('',( #192 ) ) ;
#119 = FACE_BOUND ( 'NONE', #58, .T. ) ;
#120 = ADVANCED_FACE ( 'NONE', ( #107, #199 ), #113, .T. ) ;
#121 = ORIENTED_EDGE ( 'NONE', *, *, #174, .F. ) ;
#122 = AXIS2_PLACEMENT_3D ( 'NONE', #159, #20, #95 ) ;
#123 = FILL_AREA_STYLE_COLOUR ( '', #106 ) ;
#124 =( NAMED_UNIT ( * ) PLANE_ANGLE_UNIT ( ) SI_UNIT ( $, .RADIAN. ) );
#125 = EDGE_CURVE ( 'NONE', #18, #195, #160, .T. ) ;
#126 = DIRECTION ( 'NONE',  ( 0.000000000000000000, 1.000000000000000000, 0.000000000000000000 ) ) ;
#127 = ORIENTED_EDGE ( 'NONE', *, *, #173, .T. ) ;
#128 =( NAMED_UNIT ( * ) PLANE_ANGLE_UNIT ( ) SI_UNIT ( $, .RADIAN. ) );
#129 = LINE ( 'NONE', #84, #54 ) ;
#130 = VECTOR ( 'NONE', #172, 1000.000000000000000 ) ;
#131 = ORIENTED_EDGE ( 'NONE', *, *, #173, .F. ) ;
#132 = CIRCLE ( 'NONE', #147, 1.524999999999999911 ) ;
#133 = EDGE_LOOP ( 'NONE', ( #121, #88, #178, #189 ) ) ;
#134 = DIRECTION ( 'NONE',  ( 0.000000000000000000, 0.000000000000000000, -1.000000000000000000 ) ) ;
#135 = PRODUCT_CONTEXT ( 'NONE', #93, 'mechanical' ) ;
#136 = FACE_OUTER_BOUND ( 'NONE', #115, .T. ) ;
#137 = CARTESIAN_POINT ( 'NONE',  ( 0.000000000000000000, 5.000000000000000000, 0.000000000000000000 ) ) ;
#138 =( GEOMETRIC_REPRESENTATION_CONTEXT ( 3 ) GLOBAL_UNCERTAINTY_ASSIGNED_CONTEXT ( ( #190 ) ) GLOBAL_UNIT_ASSIGNED_CONTEXT ( ( #143, #128, #89 ) ) REPRESENTATION_CONTEXT ( 'NONE', 'WORKASPACE' ) );
#139 = DIRECTION ( 'NONE',  ( 0.000000000000000000, 0.000000000000000000, 1.000000000000000000 ) ) ;
#140 = EDGE_CURVE ( 'NONE', #67, #105, #132, .T. ) ;
#141 = DIRECTION ( 'NONE',  ( 0.000000000000000000, -0.000000000000000000, 1.000000000000000000 ) ) ;
#142 = CARTESIAN_POINT ( 'NONE',  ( 0.000000000000000000, 0.000000000000000000, 0.000000000000000000 ) ) ;
#143 =( LENGTH_UNIT ( ) NAMED_UNIT ( * ) SI_UNIT ( .MILLI., .METRE. ) );
#144 = EDGE_CURVE ( 'NONE', #74, #36, #97, .T. ) ;
#145 = CARTESIAN_POINT ( 'NONE',  ( 0.000000000000000000, 0.000000000000000000, -2.500000000000000000 ) ) ;
#146 = DIRECTION ( 'NONE',  ( 0.000000000000000000, 0.000000000000000000, -1.000000000000000000 ) ) ;
#147 = AXIS2_PLACEMENT_3D ( 'NONE', #32, #98, #1 ) ;
#148 = ADVANCED_FACE ( 'NONE', ( #96 ), #16, .F. ) ;
#149 = EDGE_CURVE ( 'NONE', #105, #67, #23, .T. ) ;
#150 = CARTESIAN_POINT ( 'NONE',  ( 0.000000000000000000, 0.000000000000000000, 0.000000000000000000 ) ) ;
#151 = DIRECTION ( 'NONE',  ( 0.000000000000000000, 0.000000000000000000, 1.000000000000000000 ) ) ;
#152 = CARTESIAN_POINT ( 'NONE',  ( 0.000000000000000000, 5.000000000000000000, -1.524999999999999911 ) ) ;
#153 = ORIENTED_EDGE ( 'NONE', *, *, #27, .F. ) ;
#154 = CARTESIAN_POINT ( 'NONE',  ( 0.000000000000000000, 5.000000000000000000, 0.000000000000000000 ) ) ;
#155 = CYLINDRICAL_SURFACE ( 'NONE', #167, 1.524999999999999911 ) ;
#156 = EDGE_CURVE ( 'NONE', #186, #195, #2, .T. ) ;
#157 = CIRCLE ( 'NONE', #103, 2.500000000000000000 ) ;
#158 = APPLICATION_CONTEXT ( 'automotive_design' ) ;
#159 = CARTESIAN_POINT ( 'NONE',  ( 0.000000000000000000, 0.000000000000000000, 0.000000000000000000 ) ) ;
#160 = LINE ( 'NONE', #31, #33 ) ;
#161 = CIRCLE ( 'NONE', #42, 1.524999999999999911 ) ;
#162 = ORIENTED_EDGE ( 'NONE', *, *, #5, .T. ) ;
#163 = DIRECTION ( 'NONE',  ( -0.000000000000000000, -1.000000000000000000, -0.000000000000000000 ) ) ;
#164 = AXIS2_PLACEMENT_3D ( 'NONE', #68, #86, #6 ) ;
#165 = DIRECTION ( 'NONE',  ( 0.000000000000000000, -0.000000000000000000, 1.000000000000000000 ) ) ;
#166 = DIRECTION ( 'NONE',  ( 0.000000000000000000, 1.000000000000000000, 0.000000000000000000 ) ) ;
#167 = AXIS2_PLACEMENT_3D ( 'NONE', #3, #34, #80 ) ;
#168 = CARTESIAN_POINT ( 'NONE',  ( 3.061616997868383141E-16, 0.000000000000000000, 2.500000000000000000 ) ) ;
#169 = DIRECTION ( 'NONE',  ( 0.000000000000000000, 1.000000000000000000, 0.000000000000000000 ) ) ;
#170 = ORIENTED_EDGE ( 'NONE', *, *, #21, .F. ) ;
#171 = DIRECTION ( 'NONE',  ( -0.000000000000000000, -1.000000000000000000, -0.000000000000000000 ) ) ;
#172 = DIRECTION ( 'NONE',  ( -0.000000000000000000, -1.000000000000000000, -0.000000000000000000 ) ) ;
#173 = EDGE_CURVE ( 'NONE', #195, #186, #37, .T. ) ;
#174 = EDGE_CURVE ( 'NONE', #105, #74, #185, .T. ) ;
#175 = ORIENTED_EDGE ( 'NONE', *, *, #27, .T. ) ;
#176 = AXIS2_PLACEMENT_3D ( 'NONE', #51, #169, #47 ) ;
#177 = VERTEX_POINT ( 'NONE', #69 ) ;
#178 = ORIENTED_EDGE ( 'NONE', *, *, #21, .T. ) ;
#179 =( GEOMETRIC_REPRESENTATION_CONTEXT ( 3 ) GLOBAL_UNCERTAINTY_ASSIGNED_CONTEXT ( ( #46 ) ) GLOBAL_UNIT_ASSIGNED_CONTEXT ( ( #91, #124, #110 ) ) REPRESENTATION_CONTEXT ( 'NONE', 'WORKASPACE' ) );
#180 = EDGE_CURVE ( 'NONE', #177, #186, #129, .T. ) ;
#181 = PRODUCT_DEFINITION_CONTEXT ( 'detailed design', #158, 'design' ) ;
#182 = ORIENTED_EDGE ( 'NONE', *, *, #77, .T. ) ;
#183 = DIRECTION ( 'NONE',  ( 0.000000000000000000, 1.000000000000000000, 0.000000000000000000 ) ) ;
#184 = AXIS2_PLACEMENT_3D ( 'NONE', #150, #66, #165 ) ;
#185 = LINE ( 'NONE', #70, #130 ) ;
#186 = VERTEX_POINT ( 'NONE', #145 ) ;
#187 = DIRECTION ( 'NONE',  ( -0.000000000000000000, -1.000000000000000000, -0.000000000000000000 ) ) ;
#188 = ADVANCED_FACE ( 'NONE', ( #4 ), #155, .F. ) ;
#189 = ORIENTED_EDGE ( 'NONE', *, *, #144, .F. ) ;
#190 = UNCERTAINTY_MEASURE_WITH_UNIT (LENGTH_MEASURE( 1.000000000000000082E-05 ), #143, 'distance_accuracy_value', 'NONE');
#191 = ORIENTED_EDGE ( 'NONE', *, *, #140, .T. ) ;
#192 = SURFACE_STYLE_FILL_AREA ( #10 ) ;
#193 = PRODUCT_DEFINITION_FORMATION_WITH_SPECIFIED_SOURCE ( 'ANY', '', #83, .NOT_KNOWN. ) ;
#194 = EDGE_LOOP ( 'NONE', ( #175, #182 ) ) ;
#195 = VERTEX_POINT ( 'NONE', #168 ) ;
#196 = PRODUCT_DEFINITION ( 'UNKNOWN', '', #193, #181 ) ;
#197 = ORIENTED_EDGE ( 'NONE', *, *, #174, .T. ) ;
#198 = CARTESIAN_POINT ( 'NONE',  ( 0.000000000000000000, 5.000000000000000000, 0.000000000000000000 ) ) ;
#199 = FACE_BOUND ( 'NONE', #117, .T. ) ;
ENDSEC;
END-ISO-10303-21;
